<svg width="14" height="14" viewBox="0 0 14 14" fill="none" xmlns="http://www.w3.org/2000/svg">
<path d="M7 0C7.13261 0 7.25979 0.0526784 7.35355 0.146447C7.44732 0.240215 7.5 0.367392 7.5 0.5V3.5C7.5 3.63261 7.44732 3.75979 7.35355 3.85355C7.25979 3.94732 7.13261 4 7 4C6.86739 4 6.74021 3.94732 6.64645 3.85355C6.55268 3.75979 6.5 3.63261 6.5 3.5V0.5C6.5 0.367392 6.55268 0.240215 6.64645 0.146447C6.74021 0.0526784 6.86739 0 7 0ZM7 10C7.13261 10 7.25979 10.0527 7.35355 10.1464C7.44732 10.2402 7.5 10.3674 7.5 10.5V13.5C7.5 13.6326 7.44732 13.7598 7.35355 13.8536C7.25979 13.9473 7.13261 14 7 14C6.86739 14 6.74021 13.9473 6.64645 13.8536C6.55268 13.7598 6.5 13.6326 6.5 13.5V10.5C6.5 10.3674 6.55268 10.2402 6.64645 10.1464C6.74021 10.0527 6.86739 10 7 10ZM14 7C14 7.13261 13.9473 7.25979 13.8536 7.35355C13.7598 7.44732 13.6326 7.5 13.5 7.5H10.5C10.3674 7.5 10.2402 7.44732 10.1464 7.35355C10.0527 7.25979 10 7.13261 10 7C10 6.86739 10.0527 6.74021 10.1464 6.64645C10.2402 6.55268 10.3674 6.5 10.5 6.5H13.5C13.6326 6.5 13.7598 6.55268 13.8536 6.64645C13.9473 6.74021 14 6.86739 14 7ZM4 7C4 7.13261 3.94732 7.25979 3.85355 7.35355C3.75979 7.44732 3.63261 7.5 3.5 7.5H0.5C0.367392 7.5 0.240215 7.44732 0.146447 7.35355C0.0526784 7.25979 0 7.13261 0 7C0 6.86739 0.0526784 6.74021 0.146447 6.64645C0.240215 6.55268 0.367392 6.5 0.5 6.5H3.5C3.63261 6.5 3.75979 6.55268 3.85355 6.64645C3.94732 6.74021 4 6.86739 4 7ZM2.05 2.05C2.14376 1.95626 2.27092 1.90361 2.4035 1.90361C2.53608 1.90361 2.66324 1.95626 2.757 2.05L4.88 4.172C4.97108 4.2663 5.02148 4.3926 5.02034 4.5237C5.0192 4.6548 4.96661 4.7802 4.87391 4.87291C4.78121 4.96561 4.6558 5.0182 4.5247 5.01934C4.3936 5.02048 4.2673 4.97008 4.173 4.879L2.05 2.757C1.95626 2.66324 1.90361 2.53608 1.90361 2.4035C1.90361 2.27092 1.95626 2.14376 2.05 2.05ZM9.121 9.121C9.21476 9.02726 9.34192 8.97461 9.4745 8.97461C9.60708 8.97461 9.73424 9.02726 9.828 9.121L11.95 11.243C12.0411 11.3373 12.0915 11.4636 12.0903 11.5947C12.0892 11.7258 12.0366 11.8512 11.9439 11.9439C11.8512 12.0366 11.7258 12.0892 11.5947 12.0903C11.4636 12.0915 11.3373 12.0411 11.243 11.95L9.121 9.828C9.02726 9.73424 8.97461 9.60708 8.97461 9.4745C8.97461 9.34192 9.02726 9.21476 9.121 9.121ZM11.95 2.051C12.0434 2.14472 12.0959 2.27166 12.0959 2.404C12.0959 2.53634 12.0434 2.66328 11.95 2.757L9.828 4.88C9.7337 4.97108 9.6074 5.02148 9.4763 5.02034C9.3452 5.0192 9.21979 4.96661 9.12709 4.87391C9.03439 4.78121 8.9818 4.6558 8.98066 4.5247C8.97952 4.3936 9.02992 4.2673 9.121 4.173L11.243 2.051C11.3368 1.95726 11.4639 1.90461 11.5965 1.90461C11.7291 1.90461 11.8562 1.95726 11.95 2.051ZM4.879 9.121C4.97274 9.21476 5.02539 9.34192 5.02539 9.4745C5.02539 9.60708 4.97274 9.73424 4.879 9.828L2.757 11.95C2.6627 12.0411 2.5364 12.0915 2.4053 12.0903C2.2742 12.0892 2.14879 12.0366 2.05609 11.9439C1.96339 11.8512 1.9108 11.7258 1.90966 11.5947C1.90852 11.4636 1.95892 11.3373 2.05 11.243L4.172 9.121C4.26576 9.02726 4.39292 8.97461 4.5255 8.97461C4.65808 8.97461 4.78524 9.02726 4.879 9.121Z" fill="white"/>
</svg>
