<svg width="145" height="128" viewBox="0 0 145 128" fill="none" xmlns="http://www.w3.org/2000/svg">
<path fill-rule="evenodd" clip-rule="evenodd" d="M47.4191 1.34863C43.2783 2.92365 36.8161 6.3836 32.1399 9.52888C26.5453 13.292 18.8585 20.4691 15.0305 25.5041C8.15474 34.5474 4.55779 43.7454 2.4909 57.5714C1.10085 66.8686 1.002 69.229 0.873744 96.2143C0.737371 124.914 0.613039 123.112 2.88574 125.386C5.07864 127.581 3.78127 127.482 30.492 127.482C56.2901 127.482 55.387 127.535 57.5183 125.908C58.0626 125.493 58.8481 124.574 59.2642 123.866L60.0203 122.579L60.0962 98.1266L60.1724 73.6747L59.5672 72.2673C58.8568 70.6149 56.907 68.7734 55.4343 68.364C54.8306 68.1965 49.7996 68.0816 43.0086 68.0807L31.5975 68.0791V66.3171C31.5975 62.3055 32.7406 55.4974 34.1715 50.9866C36.0738 44.9897 38.9762 40.1545 43.1806 35.9787C46.6106 32.5717 50.5825 29.866 56.166 27.1324C60.2488 25.1337 60.8612 24.6377 61.983 22.421C62.2801 21.834 62.4781 20.7877 62.4879 19.7535C62.5019 18.2564 62.3154 17.6483 60.9363 14.6947C55.688 3.45548 55.2587 2.74236 53.0664 1.62323C51.4588 0.802513 49.1502 0.690431 47.4191 1.34863ZM130.227 1.14324C128.675 1.42989 121.377 5.00304 117.426 7.41111C105.438 14.7168 96.0803 24.5046 90.6044 35.4653C86.6002 43.48 84.6168 51.5762 83.22 65.6105C82.8487 69.34 82.7423 74.9163 82.6421 95.9318C82.5034 124.946 82.378 123.109 84.6538 125.386C86.8467 127.581 85.551 127.482 112.245 127.482C138.265 127.482 137.353 127.539 139.469 125.794C140.024 125.336 140.804 124.306 141.203 123.505L141.928 122.048L141.922 97.7957C141.916 74.0025 141.905 73.5192 141.346 72.2821C140.69 70.8326 139.69 69.7037 138.288 68.83C137.331 68.2332 137.03 68.2158 125.271 68.0791L113.233 67.9389L113.319 65.6973C113.54 59.9075 114.937 53.017 116.877 48.1493C118.871 43.1443 121.26 39.4935 124.885 35.9103C128.185 32.6493 131.553 30.3256 136.841 27.6636C141.909 25.1118 143.326 23.9358 143.9 21.804C144.579 19.2808 144.221 18.0095 140.879 11.0577C139.014 7.17798 137.359 4.1232 136.72 3.38234C135.098 1.50022 132.725 0.681745 130.227 1.14324Z" fill="#F0F6E4"/>
</svg>
